<svg width="40" height="40" viewBox="0 0 40 40" fill="none" xmlns="http://www.w3.org/2000/svg">
<g clip-path="url(#clip0_4_12)">
<path d="M29.2759 8.91887C29.2685 8.90002 29.2562 8.88525 29.2412 8.8772C27.5123 7.83605 25.6877 7.09362 23.8133 6.66851C23.7962 6.66435 23.7786 6.66735 23.763 6.67708C23.7473 6.6868 23.7344 6.70276 23.7261 6.72267C23.4776 7.31452 23.2521 7.92243 23.0503 8.54411C21.0297 8.14154 18.9745 8.14154 16.9539 8.54411C16.7508 7.92085 16.5216 7.31279 16.2675 6.72267C16.2588 6.70319 16.2458 6.6876 16.2302 6.67794C16.2147 6.66828 16.1972 6.66499 16.1802 6.66851C14.3056 7.09273 12.4809 7.83521 10.7522 8.87726C10.7374 8.8855 10.7249 8.89956 10.7164 8.9175C7.25934 15.6936 6.3123 22.3031 6.77689 28.8307C6.77819 28.8467 6.78194 28.8622 6.7879 28.8763C6.79386 28.8903 6.80191 28.9027 6.81158 28.9126C8.82462 30.8688 11.0762 32.3621 13.4703 33.3286C13.4872 33.3352 13.5052 33.3349 13.5219 33.3277C13.5386 33.3205 13.5533 33.3068 13.5639 33.2883C14.0781 32.3701 14.5337 31.3977 14.9261 30.3811C14.9315 30.3671 14.9346 30.3518 14.9352 30.3362C14.9357 30.3206 14.9337 30.305 14.9294 30.2904C14.925 30.2759 14.9183 30.2627 14.9098 30.2518C14.9013 30.2408 14.8911 30.2324 14.8799 30.227C14.1614 29.8662 13.4659 29.4313 12.7997 28.9262C12.7876 28.9169 12.7775 28.9038 12.7701 28.8881C12.7628 28.8724 12.7585 28.8545 12.7577 28.8361C12.7569 28.8178 12.7595 28.7994 12.7654 28.7826C12.7712 28.7659 12.7802 28.7513 12.7913 28.7402C12.9311 28.6027 13.071 28.4598 13.2044 28.3154C13.2163 28.3025 13.2306 28.2943 13.2459 28.2916C13.2611 28.2889 13.2766 28.2919 13.2906 28.3001C17.6547 30.9142 22.3795 30.9142 26.692 28.3001C26.7061 28.2913 26.7217 28.288 26.7372 28.2905C26.7526 28.2929 26.7672 28.3011 26.7793 28.314C26.9128 28.4584 27.0526 28.6027 27.1934 28.7402C27.2047 28.7512 27.2136 28.7657 27.2196 28.7824C27.2256 28.799 27.2283 28.8174 27.2276 28.8358C27.2268 28.8542 27.2227 28.8721 27.2154 28.8878C27.2082 28.9036 27.1981 28.9168 27.1861 28.9262C26.5214 29.4355 25.8252 29.8702 25.1049 30.2257C25.0937 30.2312 25.0835 30.2399 25.0751 30.251C25.0666 30.2621 25.06 30.2754 25.0557 30.29C25.0514 30.3047 25.0496 30.3204 25.0502 30.3361C25.0509 30.3518 25.0541 30.3671 25.0595 30.3811C25.4585 31.392 25.9135 32.3632 26.4207 33.2867C26.431 33.3057 26.4456 33.3199 26.4624 33.3274C26.4792 33.3349 26.4973 33.3352 26.5143 33.3284C28.9127 32.3652 31.1682 30.8718 33.1838 28.9126C33.1936 28.9032 33.2018 28.8911 33.2078 28.8772C33.2137 28.8634 33.2174 28.848 33.2185 28.8321C33.7747 21.2855 32.2873 14.7301 29.2759 8.91887ZM15.5779 24.8561C14.2639 24.8561 13.1813 23.2735 13.1813 21.3299C13.1813 19.3863 14.2429 17.8037 15.5779 17.8037C16.9232 17.8037 17.9954 19.4001 17.9744 21.3298C17.9744 23.2735 16.9127 24.8561 15.5779 24.8561ZM24.4387 24.8561C23.1248 24.8561 22.0422 23.2735 22.0422 21.3299C22.0422 19.3863 23.1038 17.8037 24.4387 17.8037C25.7841 17.8037 26.8562 19.4001 26.8352 21.3298C26.8352 23.2735 25.7841 24.8561 24.4387 24.8561Z" fill="#3E3E3E"/>
</g>
<defs>
<clipPath id="clip0_4_12">
<rect width="26.6667" height="26.6667" fill="white" transform="translate(6.66669 6.66669)"/>
</clipPath>
</defs>
</svg>
