<svg  viewBox="0 0 40 40" fill="none" xmlns="http://www.w3.org/2000/svg">
<g clip-path="url(#clip0_4_11)">
<path d="M15.586 27.3646C15.586 27.4688 15.4624 27.5521 15.3065 27.5521C15.1291 27.5678 15.0054 27.4844 15.0054 27.3646C15.0054 27.2605 15.1291 27.1771 15.285 27.1771C15.4463 27.1615 15.586 27.2448 15.586 27.3646ZM13.914 27.1302C13.8764 27.2344 13.9839 27.3542 14.1452 27.3855C14.285 27.4375 14.4463 27.3855 14.4785 27.2813C14.5108 27.1771 14.4086 27.0573 14.2473 27.0105C14.1075 26.974 13.9516 27.0261 13.914 27.1302ZM16.2903 27.0417C16.1344 27.0782 16.0269 27.1771 16.043 27.2969C16.0592 27.4011 16.1989 27.4688 16.3602 27.4323C16.5161 27.3959 16.6237 27.2969 16.6075 27.1928C16.5914 27.0938 16.4463 27.0261 16.2903 27.0417ZM19.828 7.08337C12.371 7.08337 6.66669 12.5677 6.66669 19.7917C6.66669 25.5678 10.4194 30.5105 15.7796 32.25C16.4678 32.3698 16.7097 31.9584 16.7097 31.6198C16.7097 31.2969 16.6936 29.5157 16.6936 28.4219C16.6936 28.4219 12.9301 29.2032 12.1398 26.8698C12.1398 26.8698 11.5269 25.3542 10.6452 24.9636C10.6452 24.9636 9.414 24.1459 10.7312 24.1615C10.7312 24.1615 12.0699 24.2657 12.8065 25.5053C13.9839 27.5157 15.957 26.9375 16.7258 26.5938C16.8495 25.7605 17.1989 25.1823 17.586 24.8386C14.5807 24.5157 11.5484 24.0938 11.5484 19.0834C11.5484 17.6511 11.957 16.9323 12.8172 16.0157C12.6774 15.6771 12.2205 14.2813 12.957 12.4792C14.0807 12.1407 16.6667 13.8855 16.6667 13.8855C17.742 13.5938 18.8979 13.4427 20.043 13.4427C21.1882 13.4427 22.3441 13.5938 23.4194 13.8855C23.4194 13.8855 26.0054 12.1355 27.1291 12.4792C27.8656 14.2865 27.4086 15.6771 27.2688 16.0157C28.1291 16.9375 28.6559 17.6563 28.6559 19.0834C28.6559 24.1094 25.4893 24.5105 22.4839 24.8386C22.9785 25.25 23.3979 26.0313 23.3979 27.2552C23.3979 29.0105 23.3817 31.1823 23.3817 31.6094C23.3817 31.948 23.6291 32.3594 24.3118 32.2396C29.6882 30.5105 33.3334 25.5678 33.3334 19.7917C33.3334 12.5677 27.285 7.08337 19.828 7.08337ZM11.8925 25.0469C11.8226 25.099 11.8387 25.2188 11.9301 25.3178C12.0161 25.4011 12.1398 25.4375 12.2097 25.3698C12.2796 25.3178 12.2635 25.198 12.1721 25.099C12.086 25.0157 11.9624 24.9792 11.8925 25.0469ZM11.3118 24.625C11.2742 24.6927 11.328 24.7761 11.4355 24.8282C11.5215 24.8803 11.6291 24.8646 11.6667 24.7917C11.7043 24.724 11.6506 24.6407 11.543 24.5886C11.4355 24.5573 11.3495 24.573 11.3118 24.625ZM13.0538 26.4792C12.9678 26.5469 13 26.7032 13.1237 26.8021C13.2473 26.9219 13.4032 26.9375 13.4731 26.8542C13.543 26.7865 13.5108 26.6302 13.4032 26.5313C13.285 26.4115 13.1237 26.3959 13.0538 26.4792ZM12.4409 25.7136C12.3549 25.7657 12.3549 25.9011 12.4409 26.0209C12.5269 26.1407 12.6721 26.1927 12.742 26.1407C12.828 26.073 12.828 25.9375 12.742 25.8178C12.6667 25.698 12.5269 25.6459 12.4409 25.7136Z" fill="#3E3E3E"/>
</g>
<defs>
<clipPath id="clip0_4_11">
<rect width="26.6667" height="26.6667" fill="white" transform="translate(6.66669 6.66669)"/>
</clipPath>
</defs>
</svg>
