<svg  viewBox="0 0 40 40" fill="none" xmlns="http://www.w3.org/2000/svg">
<g clip-path="url(#clip0_4_16)">
<path d="M31.4286 6.66669H8.5655C7.51788 6.66669 6.66669 7.52978 6.66669 8.58931V31.4107C6.66669 32.4703 7.51788 33.3334 8.5655 33.3334H31.4286C32.4762 33.3334 33.3334 32.4703 33.3334 31.4107V8.58931C33.3334 7.52978 32.4762 6.66669 31.4286 6.66669ZM14.7262 29.5238H10.7738V16.7976H14.7322V29.5238H14.7262ZM12.75 15.0595C11.4822 15.0595 10.4584 14.0298 10.4584 12.7679C10.4584 11.506 11.4822 10.4762 12.75 10.4762C14.0119 10.4762 15.0417 11.506 15.0417 12.7679C15.0417 14.0357 14.0179 15.0595 12.75 15.0595ZM29.5417 29.5238H25.5893V23.3334C25.5893 21.8572 25.5595 19.9584 23.5357 19.9584C21.4762 19.9584 21.1607 21.5655 21.1607 23.2262V29.5238H17.2084V16.7976H21V18.5357H21.0536C21.5834 17.5357 22.875 16.4822 24.7976 16.4822C28.7976 16.4822 29.5417 19.1191 29.5417 22.5476V29.5238Z" fill="#3E3E3E"/>
</g>
<defs>
<clipPath id="clip0_4_16">
<rect width="26.6667" height="26.6667" fill="white" transform="translate(6.66669 6.66669)"/>
</clipPath>
</defs>
</svg>
